<svg version="1.2" xmlns="http://www.w3.org/2000/svg" viewBox="0 0 1196 1238" width="1196" height="1238">
	<title>Central_Bank_of_India-svg</title>

	<style>
		.s0 { fill: #ce0f3e } 
	</style>
	<g id="layer1">
		<g id="g4871">
			<g id="Clip-Path: g4873" clip-path="url(#cp1)">
				<g id="g4873">
					<g id="g5595">
						<path id="path5597" fill-rule="evenodd" class="s0" d="m1195.5 605.6v229.7h-198.1l-268.7 270.7-130.6 131.4h-201.7v-202.7l-396.3-412.2v-209.5h205l272.9-289.1 116.7-123.2 214.5-0.6v213.4zm-167.9-1.6l-224.8-230.3-74 0.8-120.3 1.1 0.1 35.4 120.2-0.6h72.4l203 197.1zm-82.9 224.1l-1.7-195.8h-34.7v194l-179.5 185.1-114.9 118.1 3.6 23.5 111.3-110.5zm-332.2 202.4l3.2 23.2 113.1-111.2 116.1-114.4-1.7-195.9h-34.8v194.1l-79.6 83.2zm-10.3-218.2l126.6-124.2 68.9-67.9-68.9-72.8-119.4-126.2-131.3 129-64 63 64 67.5zm-4 155.2v-35l-120.2 0.2h-72.5l-301.6-295.5-23.3 3.5 323.4 328.6 74-0.6zm-419.2-328.6l224.6 230.5 74.5-0.9 120.1-1.3v-35.2l-120.1 0.2-72.7 0.1-203.3-196.6zm412.1-450.1l-113 111.4-116.2 114.6 1.6 195.4h34.9v-194l79.7-82.9 116-120.9zm-328.9 226l1.4 195.4h35v-194l179.5-184.8 114.6-118.2-3.2-23.3-111.4 110.3zm864.1 187.5l-323.5-328.9-74 1-120.4 0.9v35.2h120.4l72.4-0.6 301.7 295.7z"/>
					</g>
					<g id="g5599">
					</g>
					<g id="g5767">
					</g>
				</g>
			</g>
		</g>
	</g>
</svg>