<?xml version="1.0" encoding="utf-8"?>
<!-- Generator: Adobe Illustrator 23.0.1, SVG Export Plug-In . SVG Version: 6.00 Build 0)  -->
<svg version="1.1" id="Layer_1" xmlns="http://www.w3.org/2000/svg" xmlns:xlink="http://www.w3.org/1999/xlink" x="0px" y="0px"
	 viewBox="0 0 1000 1000" enable-background="new 0 0 1000 1000" xml:space="preserve">
<g>
	<path fill-rule="evenodd" clip-rule="evenodd" fill="#020202" d="M474.1,167.5c4.8-0.4,9.6-0.6,14.4-0.9v7.7
		c-52.2,8.2-129.4,62.1-189.7,129.8H181.1C249.4,229,353.8,176.8,474.1,167.5L474.1,167.5z M279.7,326.8
		c-42.9,54-73.2,113.9-72.2,165.4H98.1c3.6-59.9,26.5-116.7,64-165.4C162.1,326.8,279.7,326.8,279.7,326.8z M209.5,514.9
		c8.3,66.7,40.7,121.6,80.8,167.3H156.6c-33-43.9-53.5-95.2-57.9-151.1c-0.4-5.4-0.7-10.9-0.7-16.2H209.5z M311.3,704.9
		c56.4,56.9,121.5,97.9,155.9,128.9c-119-5-224.8-53.8-292.3-128.9H311.3z M505.8,166.2c134.3-1.8,254.5,52.4,326.3,138H711.8
		c-62.7-71.5-146.3-125-206.2-130.1v-7.9H505.8z M849.5,326.8c29.2,42,47.5,90.3,51.6,142.3c0.6,7.7,0.9,15.5,0.9,23H799.5
		c0-3.6-0.3-7.3-0.9-10.9c-4.2-52.4-30.9-106.5-68-154.5C730.7,326.8,849.5,326.8,849.5,326.8z M900.9,514.9
		c-5.3,61-30.5,118.4-70.4,167.3H708.3c47.4-56.2,82.3-115.8,89.7-167.3H900.9z M810.1,704.9c-65.3,67.5-160.7,114.8-270.3,126.6
		l5.1-3.4c49-32.5,99.9-76,143.4-123.2L810.1,704.9L810.1,704.9z M488.6,822.9l-156.3-118h156.3V822.9z M667.8,704.9L507.4,823.2
		h-1.5V704.9H667.8z M488.6,181.1L328,302.3h160.6V181.1z M505.8,302.1H672l-164.8-124l-1.5,0.1L505.8,302.1L505.8,302.1z"/>
	<path fill-rule="evenodd" clip-rule="evenodd" fill="#020202" d="M309.3,662.5c-2.8-42.7-5.4-85.5-8.2-128.3
		c-5-59.9,11.8-80.4,57.3-83.1c32.4,0.4,71.8,14.6,107.8,21.9c26.7,4.7,53.1,3.8,55.9-15c-5.3-48.6,17.5-68.1,75.8-43.6
		c-0.4-38.5,9.9-66.8,33.4-83.3c-17.8,32.8-25.4,65.2-2.8,114.6c-24.1,14.1-33,28.4-9.6,58.6c12.4,8.8,13.4,17.8,10.9,37.5
		c38.5,24.1,44,83.3,10.2,83.3c-4.4,33-19.7,45.9-49.7,34.7c-18.4,2.9,10.8,16.9-1.3,23.2c-16,4.7-24.6-2.6-26-21.9
		c-15.2-7.9-22.9-5.5-23.2,6.9c7.1,0.6,14.6,7.7,4.1,15c-10.5,5.4-22.8-9-24.5-28.6c1.8-18.2-2.5-34.3-11.7-52.5
		c23.3-1.8,42.1-8.8,41.6-25.2c-0.7-11.8,2.9-20.1,15-32.1c5.4-34.7-7.1-56.4-43.8-49.9c-38.6,7.1-73.2,9.5-110.6-8.2
		c-57.3-31.4-103.6-18.4-99.6,21.9c2.3,47.3,4.5,94.7,6.9,141.9C314.8,654.3,312.1,658.4,309.3,662.5L309.3,662.5z M369.8,681.5
		c-6.1,0-12.4,0-18.5,0c-10.1-9.5-15.8-17.9-14.4-33.7c1-6.7,1.8-13.3,2.8-20c36.8-15.9,52.8-46.8,30.9-81.4
		c-14.9-14.3,3.2-27.1,25.5-7.6c17.8,12.4,21.9,33,15.2,52.2c11.8,8.8,26.7,14.6,46.8,15.2c7.1,0.3,4.2,9.8-6,7.7
		c-17.1-1.3-32.2-5.5-45.4-12.8c-6.7,11.8-17.5,22.5-31.8,29.5C350.3,635.7,353.5,661.6,369.8,681.5L369.8,681.5z M418,624.9
		c6.3-6,1.8-17.9-12.4-4.1c-13.6,19.1-19,38.1-6.9,57.2c12,9.5,17.5,6,22,0.7C401.5,659.9,400.6,641.9,418,624.9L418,624.9z
		 M576.9,553.7c-10.2,8.3-17.9,26.8-7.7,44.8c9.8,13,15.6,27.1,0.4,34.3c-8.6,4.2-9.2,15.9,2.8,14.1c15.2-3.1,35-28.3,8.6-53.8
		C571.5,576.3,570.8,569.7,576.9,553.7L576.9,553.7z M585.5,494.2c-8,26.8-12.1,50,14.1,74.4c6.7,6.3,8.6,13.7,5.5,22.5
		c-2.8,9.2,0.1,14.1,8.3,25.1c3.9,7.1,0.4,19.5-5.5,24.2c-8.5,5.3-9.8,17.2,9,13.3c13.6-8.9,17.4-22.2,11.4-39.7
		c-10.5-7.6-13.1-17.6-7.7-30.2c3.1-14.6-5.4-21.1-11.4-29.2c-14.1-12-17.4-29.8-13.3-51.6C598.8,481.9,588.7,484.4,585.5,494.2
		L585.5,494.2z M613.4,549.5c-5.4-7.4,3.4-8.2,8.2-2.3c25.4,17.8,36.5,37.6,26.5,60.2c-7.4,10.8-16.2,5-12.8-1.9
		C645.8,586.9,634.5,568.3,613.4,549.5L613.4,549.5z M697.3,351.3c2.2,45.1-11.1,75.7-39.7,91.9c20.1,20.9,21.9,40.7,13,57.8
		c-8,8.9-9.2,19.5-9.3,30.3c-1,6.4-3.9,10.1-8.6,10.9c1.9,2.6,3.8,5.3,5.8,7.9c5.3-6,8.6-14,10.1-23.8c1.2-14.6,7.4-22.2,14.4-28.9
		c7.7-13.6,6.9-28.9-2.9-46.2C722.5,413.2,716.7,381.4,697.3,351.3L697.3,351.3z M634,478.7c2.8-0.9,6,1.3,6.9,4.7
		c1,3.5-0.6,6.9-3.4,7.7c-2.8,0.9-6-1.3-6.9-4.7C629.7,483,631.2,479.6,634,478.7L634,478.7z"/>
</g>
</svg>
