<?xml version="1.0" encoding="UTF-8"?>
<svg enable-background="new 0 0 57.7 75.8" version="1.1" viewBox="0 0 57.7 75.8" xml:space="preserve" xmlns="http://www.w3.org/2000/svg">
 <style type="text/css">
  .st0{fill:#21317D;}
	.st1{fill:#ED1C24;}
 </style>
 <g transform="matrix(1.3333 0 0 -1.3333 0 80)">
  <path class="st0" d="M10.8,46.3V60H0V27.5C0,35.5,4.4,42.5,10.8,46.3">
  </path>
  <path class="st0" d="m23 49.1v-10.8c5.3-0.7 9.5-5.2 9.5-10.7 0-6-4.8-10.8-10.8-10.8s-10.8 4.8-10.8 10.8v-18.8c3.2-1.8 6.9-2.9 10.8-2.9 12 0 21.7 9.7 21.7 21.7-0.1 11.4-9.1 20.8-20.4 21.5">
  </path>
  <path class="st1" d="m10.8 46.3c-6.4-3.8-10.8-10.8-10.8-18.8v-24.3h10.8v24.4c0 5.5 4.1 10.1 9.5 10.7v10.9c-3.4-0.3-6.7-1.3-9.5-2.9">
  </path>
 </g>
</svg>
